<?xml version="1.0" encoding="utf-8"?>
<!-- Generator: Adobe Illustrator 23.0.1, SVG Export Plug-In . SVG Version: 6.00 Build 0)  -->
<svg version="1.1" id="Layer_1" xmlns="http://www.w3.org/2000/svg" xmlns:xlink="http://www.w3.org/1999/xlink" x="0px" y="0px"
	 viewBox="0 0 1417.323 1417.323" style="enable-background:new 0 0 1417.323 1417.323;" xml:space="preserve">
<g>
	<path d="M1002.922,735.061c2.102,1.734,4.207,3.469,6.283,5.195c10.755,8.968,21.38,18.098,31.582,27.13
		c62.351,55.171,111.121,108.294,141.988,154.627c13.452-5.913,28.235-9.423,43.766-9.942
		c-32.329-52.702-86.72-113.493-157.779-176.332c-10.437-9.238-21.263-18.54-32.411-27.843
		C1199.907,571.16,1289.435,439.814,1250,375.116c-1.982-3.282-4.289-6.336-6.888-9.195c-0.65-0.715-1.332-1.43-2.014-2.079
		c-9.78-9.813-23.232-16.863-39.9-21.347c-2.015-0.552-4.094-1.072-6.239-1.56c-8.318-1.852-17.35-3.087-27.065-3.801
		c2.827,10.17,4.224,20.73,4.224,31.517c0,3.801-0.162,7.538-0.552,11.242c5.101,0.552,9.813,1.299,14.167,2.274
		c1.495,0.325,2.924,0.682,4.289,1.072l0.097,0.033h0.097c9.488,2.567,16.733,6.141,20.957,10.397l0.39,0.39l0.227,0.195
		l0.065,0.065c0.812,0.91,1.462,1.755,1.982,2.632l0.065,0.065l0.033,0.098c7.051,11.567,3.379,43.279-30.185,94.583
		c-36.033,55.008-96.662,118.854-175.357,184.52c-19.691,16.409-40.291,32.746-61.585,48.872l9.794-26.876l15.141-41.557
		l79.366-217.766c0.645,0.031,1.301,0.04,1.961,0.04c1.202,0,2.404-0.033,3.607-0.098c1.495-0.065,2.957-0.195,4.386-0.357
		c0.78-0.097,1.559-0.195,2.339-0.292c1.007-0.163,1.982-0.325,2.957-0.52c0.812-0.13,1.625-0.325,2.404-0.52
		c0.162,0,0.292-0.032,0.422-0.098c0.715-0.13,1.397-0.325,2.112-0.52c0.617-0.162,1.267-0.325,1.885-0.52
		c6.628-1.949,12.834-4.874,18.455-8.578c0.552-0.39,1.105-0.747,1.657-1.137c2.599-1.82,5.101-3.801,7.441-5.946
		c0.422-0.422,0.845-0.812,1.235-1.202c0.455-0.422,0.91-0.877,1.332-1.332c0.715-0.715,1.397-1.462,2.079-2.209
		c2.729-2.989,5.166-6.239,7.311-9.715c0.455-0.715,0.91-1.462,1.332-2.21c0.162-0.227,0.292-0.455,0.455-0.747
		c0.422-0.78,0.845-1.56,1.235-2.372c0.487-0.91,0.91-1.82,1.332-2.762c0.422-0.845,0.78-1.722,1.137-2.599
		c0.098-0.227,0.228-0.487,0.293-0.78c0.325-0.715,0.585-1.462,0.845-2.209c0.39-1.072,0.747-2.144,1.104-3.282
		c0.552-1.917,1.072-3.867,1.462-5.848c0.228-1.04,0.422-2.08,0.585-3.119c0.195-1.072,0.325-2.177,0.455-3.282
		c0.065-0.52,0.13-1.007,0.162-1.527c0.065-0.747,0.13-1.495,0.162-2.274c0.098-1.397,0.13-2.794,0.13-4.224
		c0-10.95-2.502-21.314-6.953-30.542c-8.545-17.643-24.206-31.192-43.246-36.845h-0.065c-6.368-1.917-13.094-2.924-20.047-2.924
		c-17.708,0-33.824,6.531-46.171,17.318c-14.231,12.379-23.426,30.412-24.076,50.622c-3.184,0.975-6.368,1.949-9.585,2.957
		c-4.549,1.43-9.13,2.892-13.744,4.419c-1.885,0.617-3.802,1.235-5.719,1.885c-6.271,2.08-12.607,4.256-19.007,6.498
		c-20.405,7.181-41.459,15.206-63.001,24.011c-5.199,2.08-10.43,4.256-15.693,6.466c-3.087,1.3-6.173,2.632-9.293,3.964
		c-6.173,2.632-12.412,5.361-18.65,8.123c-4.127,1.82-8.253,3.672-12.412,5.556c-8.48,3.834-16.993,7.798-25.571,11.827
		c-0.033,0-0.033,0.033-0.033,0.033c-6.368,3.022-12.802,6.108-19.235,9.227c-6.466,3.119-12.932,6.336-19.43,9.585
		c-5.393,2.697-10.82,5.459-16.246,8.253c-3.444,1.755-6.888,3.509-10.332,5.329c-7.408,3.834-14.816,7.766-22.257,11.762
		c-7.408,3.964-14.816,7.993-22.257,12.12c-12.607,6.953-25.278,14.101-37.95,21.477c-10.04,5.816-20.112,11.762-30.217,17.838
		c-3.347,2.014-6.693,4.061-10.072,6.108c-17.123,10.43-33.921,20.99-50.362,31.647l23.589-64.788h0.032l27.131-74.438
		l77.85-213.665v227.733c14.881-8.025,29.762-15.791,44.513-23.264V155.793c27.917-9.311,48.051-35.638,48.051-66.685
		c0-38.826-31.475-70.3-70.3-70.3c-38.826,0-70.301,31.475-70.301,70.3c0,23.225,11.268,43.812,28.629,56.612l-99.187,272.188
		l-14.491,39.77l-33.564,92.146h-0.033l-24.726,67.907c-29.759,20.883-58.062,41.954-84.721,63.006
		c-2.168-1.788-4.335-3.576-6.483-5.366c-11.502-9.585-21.802-18.455-31.582-27.131c-62.774-55.496-111.771-108.977-142.573-155.537
		c-13.712,5.654-28.69,8.805-44.384,8.903c32.167,53.156,87.045,114.695,158.981,178.281c10.462,9.293,21.314,18.585,32.492,27.91
		c0.029,0.024,0.058,0.048,0.087,0.072c-0.309,0.258-0.623,0.515-0.932,0.773C205.689,845.627,115.719,977.38,155.229,1042.233
		c5.491,9,13.289,16.375,23.134,22.192c1.787,1.04,3.639,2.047,5.589,3.022h0.033c1.917,0.942,3.931,1.852,5.978,2.697
		c4.127,1.69,8.513,3.184,13.159,4.484c2.339,0.65,4.711,1.235,7.148,1.787c8.448,1.884,17.578,3.152,27.455,3.834
		c-2.469-9.488-3.769-19.43-3.769-29.665c0-4.386,0.227-8.74,0.715-12.997c-5.459-0.552-10.527-1.365-15.141-2.372
		c-1.917-0.455-3.607-0.877-5.036-1.267c-3.054-0.845-5.913-1.82-8.415-2.86c-1.202-0.487-2.339-1.007-3.477-1.56l-0.585-0.292
		c-0.747-0.39-1.495-0.812-2.274-1.235c-3.932-2.339-6.693-4.874-8.448-7.733c-7.051-11.599-3.379-43.344,30.217-94.648
		c36.001-55.041,96.662-118.854,175.389-184.552c20.96-17.492,43.09-34.995,66.165-52.345l-11.385,31.226l-15.141,41.557
		l-79.767,218.863l-0.003,0.009c-1.247-0.066-2.502-0.106-3.766-0.106c-34.279,0-62.806,24.531-69.045,56.99
		c-0.845,4.321-1.267,8.773-1.267,13.321c0,10.235,2.177,19.918,6.108,28.658c10.95,24.531,35.578,41.622,64.203,41.622
		c38.762,0,70.182-31.355,70.279-70.085c1.105-0.325,2.209-0.65,3.314-1.007c2.664-0.78,5.329-1.625,7.993-2.469
		c2.794-0.877,5.588-1.787,8.383-2.697c5.621-1.819,11.307-3.704,16.993-5.654c3.672-1.235,7.343-2.534,11.047-3.867
		c2.08-0.715,4.192-1.462,6.271-2.209c5.816-2.079,11.665-4.224,17.578-6.433c2.957-1.105,5.914-2.242,8.903-3.379
		c5.946-2.274,11.924-4.614,17.968-7.018c6.044-2.404,12.119-4.874,18.228-7.408c12.249-5.069,24.628-10.365,37.17-15.921
		c6.238-2.762,12.542-5.621,18.878-8.513c27.585-12.639,55.788-26.416,84.348-41.297c0.005-0.003,0.011-0.006,0.016-0.008v318.631
		c-27.918,9.311-48.053,35.638-48.053,66.686c0,38.826,31.475,70.3,70.301,70.3c38.826,0,70.3-31.475,70.3-70.3
		c0-22.036-10.145-41.695-26.012-54.585l99.837-273.994l14.491-39.737l59.587-163.515
		C949.646,776.053,977.063,755.536,1002.922,735.061z M660.83,905.444c-27.325,14.231-55.073,27.813-82.366,40.322
		c-5.491,2.534-11.989,5.491-18.455,8.318c-11.924,5.296-24.109,10.527-36.228,15.531c-5.914,2.437-11.827,4.874-17.675,7.18
		c-6.173,2.469-11.892,4.711-17.35,6.791l-2.469,0.942c-2.079,0.78-4.126,1.56-6.206,2.34c-6.044,2.274-11.6,4.289-17.026,6.238
		c-1.56,0.552-3.184,1.137-4.906,1.755c-3.737,1.332-7.798,2.729-11.892,4.127c-5.134,1.787-10.462,3.541-16.376,5.458
		c-2.632,0.845-5.296,1.722-8.058,2.599c-2.372,0.747-4.711,1.494-7.083,2.177l-0.585,0.195l-0.552,0.163
		c-0.747,0.26-1.495,0.455-2.242,0.682l-0.357,0.098l-0.293,0.097c-3.554-5.108-7.764-9.719-12.508-13.713l75.705-207.814
		l15.044-41.264l5.236-14.369l33.086-90.765c15.738-10.849,31.644-21.489,47.456-31.722c16.148-10.462,32.752-20.892,49.29-30.964
		l3.834-2.339c2.047-1.234,4.094-2.469,6.108-3.704c9.877-5.946,19.852-11.827,29.697-17.513c5.466-3.186,11.015-6.374,16.717-9.608
		v68.236c-42.475,10.043-74.083,48.2-74.083,93.744c0,53.202,43.129,96.331,96.331,96.331c53.202,0,96.331-43.129,96.331-96.331
		c0-45.538-31.599-83.691-74.065-93.74v-92.775c7.276-3.898,13.497-7.177,19.414-10.209l0.13-0.097l0.162-0.098
		c3.249-1.689,6.466-3.347,9.78-5.036l0.097-0.033l0.065-0.033c5.296-2.729,10.56-5.426,15.791-8.025
		c7.083-3.542,12.997-6.466,18.975-9.358c6.336-3.087,12.672-6.108,18.91-9.098l3.152-1.495c6.401-2.989,14.101-6.563,21.802-10.04
		c4.029-1.82,8.025-3.607,12.054-5.394c6.986-3.087,12.737-5.621,18.163-7.895l2.794-1.235c2.112-0.877,4.192-1.787,6.239-2.632
		c4.809-2.014,9.942-4.159,15.043-6.206l0.13-0.065l0.162-0.065c20.242-8.253,40.03-15.823,59.135-22.581
		c6.823-2.405,13.581-4.711,20.21-6.921l0.13-0.065l0.097-0.033c1.3-0.422,2.599-0.845,3.867-1.267l1.56-0.52
		c3.899-1.267,8.058-2.632,13.094-4.191c2.827-0.877,5.589-1.722,8.318-2.599c0.877,1.397,1.82,2.762,2.859,4.061
		c0.13,0.227,0.293,0.422,0.487,0.65c0.455,0.585,0.91,1.17,1.397,1.754c1.397,1.722,2.892,3.379,4.484,4.939
		c0.682,0.682,1.397,1.365,2.112,2.014c1.072,1.007,2.209,1.982,3.347,2.892c0.14,0.114,0.286,0.221,0.428,0.334l-74.898,205.5
		l-15.011,41.264L882.44,771.678c-13.829,9.581-28.061,19.19-42.516,28.688l-5.816,3.801
		c-17.838,11.599-35.643,22.809-52.994,33.369c-25.148,15.336-50.947,30.315-76.713,44.546c-6.986,3.866-14.296,7.83-21.769,11.859
		C674.314,898.393,667.426,902.032,660.83,905.444z M820.494,941.639l-14.491,39.835h-0.033l-81.083,222.55V919.016
		c25.891-14.293,52.008-29.431,78.224-45.414c18.423-11.209,36.423-22.581,54.034-34.051h0.032c0.231-0.151,0.46-0.302,0.691-0.453
		L820.494,941.639z"/>
	<path d="M177.583,453.713c7.343,0,14.426-1.137,21.087-3.217c28.528-8.968,49.192-35.611,49.192-67.095
		c0-1.527-0.033-3.022-0.162-4.516c-0.017-0.27-0.047-0.537-0.067-0.807c0.305-0.012,0.605-0.027,0.912-0.038
		c2.729-0.098,5.556-0.162,8.448-0.162c12.444,0,25.961,0.877,40.42,2.664c57.055,6.823,128.829,27.065,208.661,58.81l13.809-37.853
		l0.65-1.82c-89.189-35.383-169.216-56.925-232.087-62.546c-11.015-1.007-21.509-1.495-31.452-1.495
		c-8.87,0-17.253,0.39-25.181,1.202c-0.492,0.05-0.975,0.107-1.464,0.16c-12.888-14.64-31.717-23.879-52.765-23.879
		c-38.827,0-70.312,31.452-70.312,70.279c0,30.152,19.008,55.886,45.683,65.86C160.623,452.154,168.908,453.713,177.583,453.713z"/>
	<path d="M1299.874,1027.937c-0.032-0.975-0.098-1.949-0.195-2.891c-0.032-0.228-0.065-0.455-0.065-0.683
		c-0.098-0.91-0.228-1.819-0.357-2.729c-0.325-2.307-0.78-4.581-1.365-6.824c-0.195-0.877-0.455-1.754-0.715-2.632
		c-0.195-0.747-0.422-1.462-0.65-2.177c-0.13-0.422-0.292-0.845-0.422-1.234c-0.195-0.552-0.39-1.072-0.585-1.592
		c-0.682-1.82-1.43-3.607-2.274-5.362c-0.39-0.812-0.78-1.625-1.202-2.404c-0.747-1.462-1.527-2.859-2.404-4.256
		c-1.072-1.755-2.209-3.444-3.412-5.068c-0.747-1.04-1.56-2.047-2.372-3.022c-0.585-0.715-1.202-1.43-1.82-2.112
		c-0.162-0.195-0.325-0.39-0.52-0.552c-0.682-0.748-1.365-1.495-2.112-2.21c-0.715-0.748-1.494-1.495-2.274-2.21
		c-0.065-0.033-0.098-0.098-0.163-0.13c-0.845-0.747-1.689-1.494-2.567-2.209c-1.722-1.429-3.542-2.794-5.393-4.029
		c-0.877-0.617-1.755-1.17-2.632-1.69c-0.227-0.163-0.422-0.292-0.65-0.422c-0.845-0.487-1.657-0.974-2.534-1.43
		c-0.845-0.487-1.722-0.942-2.632-1.364c-2.144-1.073-4.386-2.014-6.693-2.859c-0.451-0.167-0.903-0.301-1.354-0.451
		c-0.145-0.424-0.284-0.845-0.433-1.27v-0.033c-0.325-0.098-0.617-0.195-0.942-0.293c-0.91-0.26-1.852-0.52-2.762-0.78
		c-1.365-0.357-2.729-0.682-4.126-0.942c-0.975-0.195-1.982-0.357-2.989-0.52c-0.975-0.163-1.917-0.293-2.892-0.358
		c-0.552-0.097-1.072-0.13-1.625-0.162c-2.047-0.195-4.126-0.292-6.206-0.292c-1.202,0-2.404,0.033-3.574,0.098h-0.098
		c-1.04,0.065-2.079,0.13-3.087,0.227c-0.39,0.033-0.747,0.065-1.105,0.13c-0.812,0.065-1.625,0.163-2.437,0.293
		c-0.26,0.033-0.52,0.065-0.78,0.13c-0.812,0.13-1.657,0.26-2.469,0.455c-1.365,0.228-2.697,0.552-4.029,0.877
		c-1.072,0.293-2.177,0.585-3.249,0.91c-0.942,0.292-1.885,0.617-2.794,0.942c0.073,0.164,0.141,0.324,0.214,0.488
		c-0.352,0.121-0.714,0.234-1.058,0.357c-4.257,1.527-8.318,3.444-12.152,5.719c-0.52,0.292-1.04,0.617-1.56,0.942
		c-0.65,0.422-1.332,0.845-1.982,1.3c-0.91,0.617-1.819,1.267-2.729,1.949c-1.592,1.17-3.152,2.437-4.646,3.802
		c-0.455,0.39-0.91,0.78-1.332,1.202c-2.827,2.632-5.426,5.523-7.798,8.578c-0.39,0.52-0.78,1.04-1.137,1.56
		c-0.455,0.617-0.91,1.267-1.332,1.884c-0.487,0.748-0.975,1.495-1.43,2.242c-0.617,0.942-1.17,1.917-1.722,2.891
		c-0.39,0.683-0.747,1.365-1.105,2.08c-0.097,0.162-0.162,0.292-0.26,0.455c-0.325,0.65-0.65,1.365-0.975,2.047
		c-1.43,3.021-2.632,6.173-3.574,9.422c-0.195,0.617-0.39,1.267-0.552,1.917c-0.455,1.625-0.812,3.282-1.137,4.938
		c-0.162,0.877-0.325,1.755-0.455,2.632c-0.13,0.747-0.227,1.527-0.292,2.307c-0.097,0.683-0.162,1.365-0.227,2.047
		c-0.065,0.682-0.13,1.364-0.13,2.047c-0.13,1.43-0.163,2.859-0.163,4.289c0,1.203,0.033,2.404,0.098,3.607
		c0.023,0.698,0.083,1.372,0.14,2.049c-3.137,0.158-6.368,0.225-9.692,0.225c-11.859,0-24.661-0.812-38.34-2.404
		c-57.478-6.628-130.259-27.033-211.293-59.297l-14.459,39.672c90.814,36.098,172.14,57.835,235.629,63.034
		c9.942,0.812,19.43,1.235,28.463,1.235c9.627,0,18.722-0.472,27.245-1.431c0.2,0.227,0.4,0.463,0.6,0.684
		c2.275,2.469,4.711,4.809,7.311,6.953c0.682,0.553,1.397,1.105,2.112,1.625c1.04,0.812,2.112,1.592,3.184,2.307
		c0.747,0.52,1.527,1.04,2.339,1.527c0.325,0.195,0.65,0.39,1.007,0.618c0.585,0.357,1.202,0.715,1.82,1.04
		c0.39,0.227,0.78,0.422,1.17,0.618c0.52,0.292,1.04,0.585,1.592,0.845c0.617,0.325,1.267,0.617,1.917,0.91
		c0.422,0.195,0.845,0.39,1.267,0.552c0.715,0.325,1.43,0.65,2.177,0.91c0.26,0.13,0.52,0.227,0.78,0.325
		c1.04,0.422,2.112,0.78,3.184,1.137c0.942,0.325,1.917,0.617,2.892,0.877c0.325,0.098,0.65,0.195,1.007,0.292
		c0.585,0.163,1.202,0.325,1.82,0.455c0.617,0.163,1.267,0.293,1.917,0.422c1.072,0.227,2.177,0.422,3.282,0.618
		c1.17,0.195,2.339,0.357,3.542,0.455c0.845,0.097,1.689,0.195,2.534,0.228c1.657,0.13,3.347,0.195,5.069,0.195
		c38.828,0,70.312-31.484,70.312-70.28C1300.004,1030.569,1299.972,1029.237,1299.874,1027.937z"/>
</g>
</svg>
