<svg id="Layer_1" data-name="Layer 1" xmlns="http://www.w3.org/2000/svg" viewBox="0 0 1183.86 1361.19"><defs><style>.cls-1{fill:#231f20;}</style></defs><title>AtomsLogo3</title><path class="cls-1" d="M706,787.34q-17.57,10.14-35.18,19.82l1.95.67A105.07,105.07,0,0,0,706,813.2a105.42,105.42,0,0,0,104.51-90.39C777.12,744.92,742.13,766.52,706,787.34Zm535.44,140h0v0a82.84,82.84,0,0,0-9.11-2,81.37,81.37,0,0,0-94.52,78.36c-33-.89-72.46-7.36-116.36-18.68s-92.26-27.49-143.1-47.81l.37-1,57.18-152.38q27.47-19.74,53-39.68,25.17-19.56,48.41-39.08c158.87-133.44,245.53-261.35,207-324.58-10.45-17.19-29.43-28.34-55.38-33.87a142,142,0,0,1,6.21,37c.06,1.65.09,3.3.09,5a141.79,141.79,0,0,1-2.5,26.49,30.37,30.37,0,0,1-.15,3.23c-.63,6.8-3.46,18.68-12,36.07-12.49,25.45-33.62,55.49-61.62,87.71-37.27,43.59-86.91,90.53-146.25,138q-23.65,18.94-49.34,37.9-18.21,13.49-37.36,26.9l-2.77,1.94q-6.9,4.88-13.91,9.7c-28.36,19.57-57.85,38.78-88.21,57.46l-8,4.87q-20,12.23-40.17,23.84-13,7.57-26.07,14.86l-7.68,4.25-3.82,2.07q-5.7,3.13-11.39,6.23c-3.1,1.69-6.19,3.35-9.29,5l-2,1.1L663.57,881q-10.43,5.47-20.8,10.76-20.21,10.32-40.25,19.92c-39.29,18.83-77.93,35.51-115.2,49.68L483,963c-.89.36-1.76.71-2.65,1q-28.86,10.79-56.05,19.36c-.61-.83-1.21-1.66-1.85-2.49-.38-.51-.77-1-1.18-1.5-.26-.32-.51-.64-.8-1-.45-.58-.93-1.15-1.44-1.7-.67-.76-1.34-1.5-2.08-2.23-.41-.48-.86-.93-1.31-1.38s-.92-.89-1.4-1.34l20.81-55.44,1.52-4.06,44.9-119.66,20.39-54.35,1.56-4.16L527,671.29q4.62-3.25,9.29-6.5,22.2-15.49,45.35-30.64,28-18.35,57.13-36.09,17-10.35,34-20.26v29.49a105.65,105.65,0,0,0-2,199.87h0l1.95.67A105.07,105.07,0,0,0,706,813.2a105.42,105.42,0,0,0,104.51-90.39,105.73,105.73,0,0,0-77.48-117.4V544q17.26-9.25,34.51-18.09c54.1-27.65,107.48-51.57,158.27-70.87l1.53-.58c1.44-.57,2.84-1.08,4.28-1.63,18.53-6.93,36.62-13.19,54.1-18.75.73,1.09,1.5,2.14,2.27,3.19.54.67,1.05,1.38,1.59,2l.1.09a.9.9,0,0,0,.16.19,1.85,1.85,0,0,0,.22.29c.13.19.29.38.45.58.51.63,1.06,1.27,1.63,1.88l0,0c.51.61,1,1.15,1.57,1.73.32.38.67.73,1,1.08l.14.15c.86.88,1.7,1.75,2.61,2.54l-22.3,59.4-44.64,119-4.73,12.56-.56,1.48a1249.44,1249.44,0,0,0,95.53-82.77l10.7-28.5,22.17-59.08c2.46,0,4.92-.13,7.35-.39.8-.06,1.6-.16,2.4-.28a13.35,13.35,0,0,0,1.53-.2c.55-.06,1.09-.16,1.63-.25,1-.16,1.92-.32,2.88-.51.09,0,.16,0,.22-.07,1-.19,2-.41,3-.67.68-.16,1.31-.32,2-.51a8.86,8.86,0,0,0,1-.29c.8-.19,1.6-.44,2.4-.7.06,0,.13,0,.19-.06,2.24-.74,4.44-1.54,6.62-2.46.64-.29,1.31-.58,1.95-.9.48-.19,1-.41,1.4-.64,1.09-.51,2.14-1.05,3.2-1.6.41-.22.86-.44,1.28-.7l1.66-1c.06,0,.09,0,.09-.06.71-.38,1.41-.83,2.11-1.28a13.15,13.15,0,0,0,1.34-.86c.77-.48,1.51-1,2.24-1.54a.67.67,0,0,0,.19-.12c.39-.26.77-.55,1.15-.83a13.91,13.91,0,0,0,1.12-.87,77.55,77.55,0,0,0,10.55-9.61,18.13,18.13,0,0,0,1.24-1.41l.1-.1c.51-.57,1-1.15,1.5-1.75.77-.9,1.5-1.83,2.2-2.78.16-.23.36-.45.52-.71.67-.86,1.27-1.75,1.88-2.65.06-.1.13-.16.19-.25.58-.87,1.15-1.76,1.7-2.69.48-.7.89-1.44,1.31-2.17.22-.35.41-.7.64-1.09a.11.11,0,0,1,0-.09c.22-.39.41-.8.64-1.19l.6-1.15s0,0,0-.05c.85-1.66,1.66-3.37,2.38-5.09.35-.8.67-1.6,1-2.43s.69-1.77,1-2.68c.18-.49.34-1,.5-1.47s.38-1.12.54-1.7.32-1.12.48-1.69c.32-1.12.61-2.27.87-3.42a34.69,34.69,0,0,0,.73-3.51c0-.11,0-.22.07-.33.1-.54.21-1.09.31-1.62,0-.32.08-.63.13-.94s.07-.53.1-.79c.14-1,.28-2.08.39-3.14,0-.15,0-.29,0-.44s0-.25,0-.37,0-.2,0-.3,0-.45,0-.67.06-.61.07-.93,0-.47.06-.7l0-.65a2.62,2.62,0,0,1,0-.28v0c.06-1.24.1-2.51.1-3.78,0-1.07,0-2.11-.06-3.17a2,2,0,0,1,0-.25c0-.27,0-.55,0-.83s0-.54,0-.83c-.06-.84-.12-1.7-.21-2.54a2.45,2.45,0,0,0,0-.27,4.73,4.73,0,0,0,0-.52c0-.06,0-.12,0-.18-.1-.87-.19-1.73-.32-2.59,0-.1,0-.23,0-.32s0-.14,0-.21,0,0,0-.05a10.06,10.06,0,0,0-.16-1.12v-.06c0-.06,0-.13,0-.19l0-.18c-.16-.91-.32-1.81-.5-2.69,0-.14,0-.28-.08-.42-.22-1.25-.51-2.46-.83-3.68,0-.07,0-.15,0-.22a1.24,1.24,0,0,1,0-.16c-.29-1.18-.64-2.36-1-3.52-.06-.16-.11-.32-.17-.49s0-.18-.09-.27a.19.19,0,0,0,0-.07v0s0,0,0-.06l-.06-.2s0-.09,0-.12c-.29-.93-.61-1.85-1-2.75l-.06-.17c-.38-1.08-.8-2.14-1.23-3.2a1.17,1.17,0,0,1,0-.11.37.37,0,0,0,0-.11c-.53-1.27-1.09-2.52-1.67-3.73-.52-1.05-1.06-2.11-1.63-3.16-.11-.21-.21-.4-.32-.58l-.07-.12a0,0,0,0,0,0,0,.36.36,0,0,1,0-.09l-.07-.14a.73.73,0,0,0-.05-.09l-.12-.21c-.44-.79-.88-1.55-1.34-2.3v0h0l-.09-.15-.06-.09,0-.06,0,0a.45.45,0,0,0-.1-.14s0,0,0-.05l-.06-.1a2.56,2.56,0,0,0-.16-.25l-.4-.68c-.32-.52-.64-1-1-1.53-1.6-2.39-3.32-4.66-5.14-6.87-.77-.92-1.54-1.82-2.37-2.71s-1.4-1.54-2.14-2.27c-.38-.42-.8-.83-1.24-1.25-.9-.89-1.83-1.76-2.78-2.59-.64-.6-1.31-1.15-2-1.72-1.24-1.06-2.55-2.05-3.86-3-.83-.61-1.66-1.21-2.53-1.79a4.76,4.76,0,0,0-.51-.32c-1-.67-2-1.31-3-1.91s-1.79-1.06-2.68-1.57l-.55-.29-1.08-.57-1.12-.58c-.7-.35-1.41-.73-2.14-1.05-1.09-.51-2.17-1-3.29-1.47s-2.21-.9-3.36-1.31c-.89-.32-1.79-.64-2.71-.93-.64-.22-1.35-.45-2-.64-2.27-.7-4.6-1.28-7-1.76-1.12-.22-2.21-.41-3.33-.6s-2.1-.32-3.19-.42c-.64-.09-1.28-.16-1.92-.22a1.5,1.5,0,0,0-.35,0c-1-.1-1.92-.16-2.91-.23-.28,0-.57,0-.86,0-.81,0-1.61-.06-2.41-.08h-1.33c-1.24,0-2.49,0-3.74.09a11.26,11.26,0,0,0-1.15.07h-.19c-.8,0-1.6.09-2.36.19l-1.19.09c-.67.1-1.34.16-2,.26l-.19,0c-.1,0-.16,0-.26,0-1.11.13-2.2.32-3.29.51-.64.1-1.24.23-1.88.35-.23.07-.45.1-.67.16a.16.16,0,0,0-.13,0,18.48,18.48,0,0,0-2.14.48l-.35.09a14.47,14.47,0,0,0-1.54.39h0l-.13,0a10.3,10.3,0,0,0-1.12.32c-.86.22-1.72.48-2.55.76-1.89.61-3.77,1.28-5.59,2.05a20.6,20.6,0,0,0-2.05.86c-.83.35-1.66.74-2.46,1.12-.25.13-.54.26-.8.38-.06,0-.09,0-.16.07-.51.25-1,.51-1.47.76-.7.36-1.4.74-2.11,1.12q-2.49,1.39-4.89,3c-.57.39-1.15.77-1.69,1.15-.7.45-1.37.93-2,1.41-.32.26-.64.51-1,.73-.83.61-1.63,1.25-2.4,1.89l-.09.1a.71.71,0,0,1-.2.12c-.73.61-1.43,1.22-2.11,1.83s-1.18,1.05-1.75,1.59c-.39.39-.77.74-1.15,1.12s-.61.61-.9.9c-1.21,1.21-2.39,2.49-3.54,3.8,0,0,0,.06-.07.13-.57.64-1.12,1.27-1.66,1.95l-1.63,2v0c-.7.93-1.41,1.89-2.08,2.84s-1.11,1.6-1.63,2.43-1.05,1.63-1.56,2.49c-.35.61-.7,1.19-1,1.79s-.68,1.19-1,1.79a2.65,2.65,0,0,0-.23.39v.06c-.54,1-1,2.08-1.56,3.13s-1,2.14-1.44,3.23-.86,2.17-1.28,3.29c-.29.83-.61,1.69-.86,2.53s-.55,1.69-.8,2.55q-.76,2.6-1.34,5.24c-.26,1.18-.48,2.37-.71,3.55q-14.93,4.65-30.39,10t-31.37,11.26c-56,20.92-116.12,47.7-178.24,79.75q-15.14,7.82-30.42,16.07-14.85,8-29.87,16.43l-4.45,2.5q-4.74,2.67-9.49,5.39c-2.14,1.22-4.29,2.44-6.43,3.68q-7,4-13.95,8.08-15.57,9.15-31.25,18.69l-1.43.87q-21.36,13-42,26.29l1.11-3,24.61-65.55,2.84-7.56L598,482.15l3.78-10.07,9.1-24.23,18.75-50L672.78,283V439.09c7.6-4.09,15.18-8,22.72-11.95q18.93-9.78,37.57-18.88V184.84a81.42,81.42,0,1,0-82.79-13.55l-31.95,85.15-63,168-6.36-2.53C493.54,400,441.3,383.12,394,371.55c-49.08-12-92.82-18.25-129.2-18.25-5,0-9.84.13-14.53.35h0a81.41,81.41,0,0,0-125.89,97,81.75,81.75,0,0,0,45.72,41.93,80.08,80.08,0,0,0,9.84,2.9,81.39,81.39,0,0,0,99.57-79.36c0-.58,0-1.15,0-1.73,32.92,1.6,71.8,8.41,114.8,19.79,23.93,6.33,49.14,14.08,75.32,23.13q27.61,9.54,56.57,21,3.85,1.51,7.72,3.07l-17.78,47.39L481,622.3l-3.71,9.88h0q-9.41,6.75-18.59,13.54-19,14-37,28.1-25.11,19.5-48.31,39.08-5.22,4.4-10.34,8.79c-151.43,129.84-232.93,253-195.38,314.67,10.26,16.9,28.73,28,53.91,33.58a141.3,141.3,0,0,1-5.53-39.09v-.18a141.2,141.2,0,0,1,3.23-30.07c.22-6.32,2.68-18.82,12.11-38.05,7.71-15.71,18.71-33.17,32.59-51.81A664.92,664.92,0,0,1,308.09,858l.61-.66c29.8-32.25,65-65.41,104.42-98.55q4.72-4,9.53-7.95c4.79-4,9.68-8,14.6-12l-6.68,17.79L380.41,890.33l-19,50.74-3.08,8.22h-.16c-1.22,0-2.43,0-3.65.09-.7,0-1.43.07-2.14.13-.22,0-.41,0-.64,0l-1.21.1c-.1,0-.16,0-.26,0l-.83.1a8.09,8.09,0,0,0-.83.09c-.67.07-1.37.16-2,.26s-1.09.16-1.63.25c-.1,0-.16,0-.26,0-.77.13-1.5.26-2.27.42l-.12,0c-1,.19-1.95.39-2.91.64-.8.16-1.57.35-2.33.58-1.16.28-2.27.6-3.39,1s-2.33.76-3.48,1.21-2.4.89-3.58,1.37c-.16.1-.36.16-.55.26-1.08.45-2.14.93-3.16,1.44-1.18.57-2.33,1.15-3.48,1.75l-.07.07c-1.15.61-2.27,1.28-3.38,2-.8.48-1.6,1-2.37,1.53a2.25,2.25,0,0,0-.35.22c-.48.32-1,.64-1.47,1,0,0-.06,0-.1.06a9.57,9.57,0,0,0-1.24.89.79.79,0,0,0-.23.16c-.51.36-1,.74-1.53,1.15a.91.91,0,0,0-.16.13c-.7.51-1.44,1.06-2.11,1.66-1,.77-1.88,1.57-2.81,2.43l-.48.42c-.83.76-1.66,1.56-2.49,2.39s-1.44,1.47-2.11,2.24a2.12,2.12,0,0,0-.26.26l-1,1c-.64.74-1.28,1.47-1.92,2.24-.83,1-1.66,2-2.43,3.06s-1.5,2-2.21,3.1a1,1,0,0,1-.15.23c-.71,1-1.38,2.11-2,3.16s-1.12,1.89-1.63,2.81c-.29.51-.57,1-.83,1.57s-.7,1.34-1.05,2-.71,1.51-1.06,2.27-.67,1.5-1,2.27c-.06.19-.16.38-.22.58-.38.89-.74,1.79-1.06,2.68-.25.67-.48,1.31-.67,2-.28.9-.6,1.76-.86,2.65l-.77,2.69c-.28,1.15-.54,2.27-.8,3.42-.15.66-.27,1.32-.39,2,0,0,0,.08,0,.12-.13.7-.26,1.4-.38,2.1a2.34,2.34,0,0,0,0,.26c-.21,1.33-.39,2.68-.54,4,0,.38-.1.73-.13,1.11v.1c-.06.77-.12,1.53-.16,2.33a7,7,0,0,0-.06.78v0a5.08,5.08,0,0,0,0,.67,1.42,1.42,0,0,0,0,.35v.29c0,.45,0,.9-.05,1.36s0,1.17,0,1.74c0,.89,0,1.78.06,2.66,0,.12,0,.25,0,.38v.22a1.16,1.16,0,0,0,0,.32v.09a5.7,5.7,0,0,0,0,.71v0l0,.53a1.09,1.09,0,0,0,0,.18,4.91,4.91,0,0,0,.06.66.41.41,0,0,0,0,.29c0,.27,0,.54.05.81s0,.36,0,.53c0,.45.07.9.13,1.35s.08.72.11,1.08.06.43.08.64c.05.38.1.77.16,1.15,0,.15.05.29.07.44.05.33.11.66.16,1v0c0,.12,0,.27.06.4v0c.16,1,.35,2,.54,2.91s.39,1.75.61,2.62c.06.31.13.63.22,1,.16.64.33,1.25.51,1.86.08.29.15.58.23.86l0,.11c.23.81.49,1.62.75,2.42l.05.15c.2.63.42,1.25.64,1.87s.51,1.42.79,2.12c.18.47.36,1,.55,1.41,0,0,0,0,0,0a.31.31,0,0,1,0,.08l.05.1.05.09.06.14c.2.49.4,1,.62,1.45l.12.26a2.68,2.68,0,0,0,.12.3,1.86,1.86,0,0,1,.1.25l.19.41.1.2c.25.52.47,1,.71,1.51l.12.24c.13.27.27.54.41.8.24.46.48.92.71,1.38l.06.12c.32.58.64,1.16,1,1.72l.1.17c.13.25.28.5.43.75l.17.3c.14.29.3.56.47.84l.08.14c.18.3.37.59.57.88a4.76,4.76,0,0,0,.32.51c.42.7.86,1.4,1.31,2.07.32.48.67,1,1,1.41,1.06,1.47,2.14,2.91,3.26,4.28.42.55.86,1.06,1.31,1.57.64.76,1.31,1.53,2,2.27s1.44,1.59,2.21,2.36,1.34,1.31,2,2c.45.42.9.8,1.35,1.22.83.76,1.69,1.5,2.55,2.2s1.47,1.22,2.24,1.79c1.37,1,2.75,2,4.18,3a2.26,2.26,0,0,0,.2.13,0,0,0,0,1,0,0c.89.61,1.82,1.19,2.75,1.76s1.66,1,2.52,1.47c0,0,.1,0,.13.06.61.36,1.21.71,1.82,1,.86.47,1.76.92,2.62,1.34,1,.48,2,1,3,1.37a17.74,17.74,0,0,0,1.72.7c.77.36,1.57.64,2.37.93s1.53.54,2.3.8c.35.13.73.26,1.11.38a10.4,10.4,0,0,0,1.12.35,7.49,7.49,0,0,0,.77.23c.83.25,1.66.48,2.49.7,1.31.32,2.62.64,3.93.9s2.4.48,3.61.67a11,11,0,0,1,1.15.16c1.09.16,2.21.28,3.33.41.95.1,1.95.16,2.9.23.61.06,1.25.09,1.89.09,1.18.07,2.36.1,3.55.1s2.55,0,3.8-.1c.54,0,1.08,0,1.63-.09s1.08-.07,1.6-.13c.25,0,.47,0,.7,0,.7-.07,1.37-.16,2-.26s1.41-.16,2.11-.26a15.54,15.54,0,0,0,1.66-.28l.32,0c.55-.1,1.09-.2,1.63-.32a1.14,1.14,0,0,0,.32-.07l1.09-.19c.64-.13,1.31-.29,1.95-.45l.35-.09c.7-.16,1.41-.32,2.11-.55.54-.12,1.05-.25,1.6-.41.16-.07.35-.1.51-.16l1.5-.48c.16,0,.29-.1.45-.13,1-.32,1.95-.67,2.9-1s1.92-.74,2.88-1.15a6.16,6.16,0,0,0,.67-.26c.93-.38,1.82-.8,2.72-1.21a84.34,84.34,0,0,0,7.73-4.16c1.09-.67,2.17-1.37,3.23-2.07s2.11-1.44,3.13-2.24a2.14,2.14,0,0,0,.19-.13c1-.76,2-1.53,2.94-2.33s1.76-1.47,2.62-2.27a8.33,8.33,0,0,0,.83-.73c.67-.58,1.28-1.19,1.92-1.86.19-.19.41-.38.61-.57.86-.86,1.69-1.76,2.49-2.65s1.66-1.86,2.43-2.82a1.26,1.26,0,0,0,.16-.15c.83-1,1.63-2,2.39-3.07s1.54-2.11,2.27-3.17c0,0,.06,0,.06-.06.71-1.09,1.38-2.17,2.05-3.26,1.21-2,2.33-4,3.32-6,.26-.51.51-1,.74-1.5s.48-1,.67-1.5a1.3,1.3,0,0,0,.19-.42c.29-.6.54-1.24.8-1.88,0,0,0-.1.06-.13.39-.89.74-1.82,1.06-2.75s.7-1.92,1-2.91c.19-.54.38-1.08.54-1.66a1.46,1.46,0,0,1,.07-.19c.12-.45.25-.93.38-1.37s.22-.8.32-1.22.19-.76.29-1.18a3.49,3.49,0,0,0,.12-.54c.2-.71.36-1.44.51-2.14a1.78,1.78,0,0,1,.07-.39c0-.09,0-.16.06-.25.13-.74.29-1.47.39-2.24a1.2,1.2,0,0,0,.06-.32c.13-.57.19-1.11.29-1.69q14.8-4.61,30.13-9.87t31.12-11.13c32.4-12.09,66.19-26.14,101-42q30.06-13.75,61-29.36,5.43-2.73,10.88-5.53V1232a81.41,81.41,0,1,0,88,18.39h0L857,994.08c105.9,42.2,200.53,66.49,271.4,70q8.89.43,17.29.44c5.79,0,11.41-.16,16.81-.48h0c.24.24.49.47.74.7a81.38,81.38,0,1,0,78.19-137.39ZM733.07,1152.53V912.44q5.43-3,10.87-6.08,14-7.89,28-16.12,16.39-9.54,32.85-19.59,12.48-7.6,24.71-15.29,10-6.27,19.8-12.6l-26.62,70.93-.21.57-21.19,56.47-.17.45Z" transform="translate(-116.73 -27.84)"/></svg>